<?xml version="1.0" encoding="utf-8"?>
<!-- Generator: Adobe Illustrator 22.0.1, SVG Export Plug-In . SVG Version: 6.00 Build 0)  -->
<svg version="1.1" id="Layer_1" xmlns="http://www.w3.org/2000/svg" xmlns:xlink="http://www.w3.org/1999/xlink" x="0px" y="0px"
	 viewBox="0 0 512 512" style="enable-background:new 0 0 512 512;" xml:space="preserve">
<style type="text/css">
	.st0{fill:#00853E;}
</style>
<g>
	<g>
		<path class="st0" d="M344.3,130l-53.5,101.5L202.5,63.8L0,448.2h370.5H405h107L344.3,130z M344.3,195.4l39.8,75.5
			c-0.6,0.4-1.1,0.7-1.6,1c-3.1,2-4,2.5-7.3,2.5s-4.1-0.5-7.3-2.5c-4.6-2.9-11.5-7.3-23.6-7.3c-12.2,0-19.1,4.4-23.6,7.3
			c-3.1,2-4,2.5-7.2,2.5l-5.4-10.2L344.3,195.4z M202.5,129.3L257,232.7c-1.9,1-3.5,2.1-5,3c-4,2.6-5.9,3.7-11,3.7
			c-5.2,0-7-1.2-11-3.7c-5.6-3.6-13.4-8.5-27.4-8.5s-21.8,4.9-27.4,8.5c-4,2.6-5.9,3.7-11,3.7s-7-1.2-11-3.7c-1.5-0.9-3.1-2-5-3
			L202.5,129.3z M50.6,417.6L50.6,417.6l83.2-158c0.9,0.5,1.8,1.1,2.9,1.7c5.6,3.6,13.4,8.5,27.4,8.5c14,0,21.8-4.9,27.4-8.5
			c4-2.6,5.9-3.7,11-3.7c5.2,0,7,1.2,11,3.7c5.6,3.6,13.4,8.5,27.4,8.5c14.1,0,21.8-4.9,27.4-8.5c1.1-0.7,2-1.3,2.9-1.7l83.2,158
			L50.6,417.6L50.6,417.6z M388.9,417.6L388.9,417.6l-60.8-115.3c3.8-1.5,6.6-3.3,8.9-4.7c3.1-2,4-2.5,7.3-2.5
			c3.3,0,4.1,0.5,7.3,2.5c4.6,2.9,11.5,7.3,23.6,7.3c11.8,0,18.6-4.1,23.2-7l63.1,119.7H388.9z"/>
	</g>
</g>
</svg>
